<mxfile host="app.diagrams.net" modified="2023-06-07T13:16:29.810Z" agent="Mozilla/5.0 (Windows NT 10.0; Win64; x64) AppleWebKit/537.36 (KHTML, like Gecko) Chrome/114.0.0.0 Safari/537.36" etag="JbIQbQ8Un4QoS6BzZGtj" version="21.2.9" type="github">
  <diagram name="Page-1" id="yZG4qE_MaHxPG4rKOIXt">
    <mxGraphModel dx="1720" dy="1866" grid="1" gridSize="10" guides="1" tooltips="1" connect="1" arrows="1" fold="1" page="1" pageScale="1" pageWidth="827" pageHeight="1169" math="0" shadow="0">
      <root>
        <mxCell id="0" />
        <mxCell id="1" parent="0" />
        <mxCell id="Znk5iVw_e4B_tP7V_jOF-3" style="edgeStyle=orthogonalEdgeStyle;rounded=0;orthogonalLoop=1;jettySize=auto;html=1;exitX=1;exitY=0.3333333333333333;exitDx=0;exitDy=0;exitPerimeter=0;entryX=0;entryY=0.5;entryDx=0;entryDy=0;" edge="1" parent="1" source="Znk5iVw_e4B_tP7V_jOF-1" target="Znk5iVw_e4B_tP7V_jOF-2">
          <mxGeometry relative="1" as="geometry" />
        </mxCell>
        <mxCell id="Znk5iVw_e4B_tP7V_jOF-1" value="Reģistrējies klients" style="shape=umlActor;verticalLabelPosition=bottom;verticalAlign=top;html=1;outlineConnect=0;" vertex="1" parent="1">
          <mxGeometry x="110" y="140" width="30" height="60" as="geometry" />
        </mxCell>
        <mxCell id="Znk5iVw_e4B_tP7V_jOF-5" style="edgeStyle=orthogonalEdgeStyle;rounded=0;orthogonalLoop=1;jettySize=auto;html=1;exitX=0;exitY=0;exitDx=0;exitDy=0;entryX=0.5;entryY=1;entryDx=0;entryDy=0;" edge="1" parent="1" source="Znk5iVw_e4B_tP7V_jOF-2" target="Znk5iVw_e4B_tP7V_jOF-4">
          <mxGeometry relative="1" as="geometry">
            <Array as="points">
              <mxPoint x="277" y="120" />
              <mxPoint x="277" y="120" />
              <mxPoint x="277" y="100" />
              <mxPoint x="210" y="100" />
            </Array>
          </mxGeometry>
        </mxCell>
        <mxCell id="Znk5iVw_e4B_tP7V_jOF-7" style="edgeStyle=orthogonalEdgeStyle;rounded=0;orthogonalLoop=1;jettySize=auto;html=1;exitX=0.5;exitY=0;exitDx=0;exitDy=0;entryX=0.5;entryY=1;entryDx=0;entryDy=0;" edge="1" parent="1" source="Znk5iVw_e4B_tP7V_jOF-2" target="Znk5iVw_e4B_tP7V_jOF-6">
          <mxGeometry relative="1" as="geometry">
            <Array as="points">
              <mxPoint x="320" y="100" />
              <mxPoint x="420" y="100" />
            </Array>
          </mxGeometry>
        </mxCell>
        <mxCell id="Znk5iVw_e4B_tP7V_jOF-32" style="edgeStyle=orthogonalEdgeStyle;rounded=0;orthogonalLoop=1;jettySize=auto;html=1;exitX=1;exitY=0.5;exitDx=0;exitDy=0;entryX=0;entryY=0.5;entryDx=0;entryDy=0;" edge="1" parent="1" source="Znk5iVw_e4B_tP7V_jOF-2" target="Znk5iVw_e4B_tP7V_jOF-31">
          <mxGeometry relative="1" as="geometry" />
        </mxCell>
        <mxCell id="Znk5iVw_e4B_tP7V_jOF-2" value="Apmeklē &quot;RKDD&quot; Mājaslapu" style="ellipse;whiteSpace=wrap;html=1;" vertex="1" parent="1">
          <mxGeometry x="260" y="120" width="120" height="80" as="geometry" />
        </mxCell>
        <mxCell id="Znk5iVw_e4B_tP7V_jOF-13" style="edgeStyle=orthogonalEdgeStyle;rounded=0;orthogonalLoop=1;jettySize=auto;html=1;exitX=0;exitY=0;exitDx=0;exitDy=0;entryX=0.5;entryY=1;entryDx=0;entryDy=0;" edge="1" parent="1" source="Znk5iVw_e4B_tP7V_jOF-4" target="Znk5iVw_e4B_tP7V_jOF-12">
          <mxGeometry relative="1" as="geometry">
            <Array as="points">
              <mxPoint x="168" y="20" />
              <mxPoint x="120" y="20" />
            </Array>
          </mxGeometry>
        </mxCell>
        <mxCell id="Znk5iVw_e4B_tP7V_jOF-4" value="Apmeklē &quot;Sākums&quot; sadaļu" style="ellipse;whiteSpace=wrap;html=1;" vertex="1" parent="1">
          <mxGeometry x="150" width="120" height="80" as="geometry" />
        </mxCell>
        <mxCell id="Znk5iVw_e4B_tP7V_jOF-11" style="edgeStyle=orthogonalEdgeStyle;rounded=0;orthogonalLoop=1;jettySize=auto;html=1;exitX=0;exitY=0;exitDx=0;exitDy=0;entryX=0.5;entryY=1;entryDx=0;entryDy=0;" edge="1" parent="1" source="Znk5iVw_e4B_tP7V_jOF-6" target="Znk5iVw_e4B_tP7V_jOF-10">
          <mxGeometry relative="1" as="geometry">
            <Array as="points">
              <mxPoint x="378" />
              <mxPoint x="330" />
            </Array>
          </mxGeometry>
        </mxCell>
        <mxCell id="Znk5iVw_e4B_tP7V_jOF-16" style="edgeStyle=orthogonalEdgeStyle;rounded=0;orthogonalLoop=1;jettySize=auto;html=1;entryX=0.5;entryY=1;entryDx=0;entryDy=0;" edge="1" parent="1" source="Znk5iVw_e4B_tP7V_jOF-6" target="Znk5iVw_e4B_tP7V_jOF-15">
          <mxGeometry relative="1" as="geometry">
            <Array as="points">
              <mxPoint x="500" y="40" />
              <mxPoint x="500" y="20" />
              <mxPoint x="530" y="20" />
            </Array>
          </mxGeometry>
        </mxCell>
        <mxCell id="Znk5iVw_e4B_tP7V_jOF-6" value="Apmeklē &quot;Katalogs&quot; sadaļu" style="ellipse;whiteSpace=wrap;html=1;" vertex="1" parent="1">
          <mxGeometry x="360" width="120" height="80" as="geometry" />
        </mxCell>
        <mxCell id="Znk5iVw_e4B_tP7V_jOF-10" value="Filtrē produktus" style="ellipse;whiteSpace=wrap;html=1;" vertex="1" parent="1">
          <mxGeometry x="270" y="-100" width="120" height="80" as="geometry" />
        </mxCell>
        <mxCell id="Znk5iVw_e4B_tP7V_jOF-36" style="edgeStyle=orthogonalEdgeStyle;rounded=0;orthogonalLoop=1;jettySize=auto;html=1;entryX=0;entryY=0.5;entryDx=0;entryDy=0;" edge="1" parent="1" source="Znk5iVw_e4B_tP7V_jOF-12" target="Znk5iVw_e4B_tP7V_jOF-35">
          <mxGeometry relative="1" as="geometry" />
        </mxCell>
        <mxCell id="Znk5iVw_e4B_tP7V_jOF-12" value="Aplūko &quot;Jaunumi&quot;&lt;br&gt;un &quot;Karstākie piedāvājumi&quot;&amp;nbsp;&amp;nbsp;" style="ellipse;whiteSpace=wrap;html=1;" vertex="1" parent="1">
          <mxGeometry x="60" y="-80" width="120" height="80" as="geometry" />
        </mxCell>
        <mxCell id="Znk5iVw_e4B_tP7V_jOF-41" style="edgeStyle=orthogonalEdgeStyle;rounded=0;orthogonalLoop=1;jettySize=auto;html=1;exitX=0;exitY=0;exitDx=0;exitDy=0;" edge="1" parent="1" source="Znk5iVw_e4B_tP7V_jOF-15" target="Znk5iVw_e4B_tP7V_jOF-35">
          <mxGeometry relative="1" as="geometry">
            <Array as="points">
              <mxPoint x="488" y="-110" />
              <mxPoint x="210" y="-110" />
            </Array>
          </mxGeometry>
        </mxCell>
        <mxCell id="Znk5iVw_e4B_tP7V_jOF-15" value="Aplūko produktus kas pieejami nopliktavā" style="ellipse;whiteSpace=wrap;html=1;" vertex="1" parent="1">
          <mxGeometry x="470" y="-80" width="120" height="80" as="geometry" />
        </mxCell>
        <mxCell id="Znk5iVw_e4B_tP7V_jOF-18" style="edgeStyle=orthogonalEdgeStyle;rounded=0;orthogonalLoop=1;jettySize=auto;html=1;exitX=0.5;exitY=0;exitDx=0;exitDy=0;entryX=1;entryY=1;entryDx=0;entryDy=0;" edge="1" parent="1" source="Znk5iVw_e4B_tP7V_jOF-17" target="Znk5iVw_e4B_tP7V_jOF-2">
          <mxGeometry relative="1" as="geometry" />
        </mxCell>
        <mxCell id="Znk5iVw_e4B_tP7V_jOF-22" style="edgeStyle=orthogonalEdgeStyle;rounded=0;orthogonalLoop=1;jettySize=auto;html=1;entryX=0.5;entryY=0;entryDx=0;entryDy=0;" edge="1" parent="1" source="Znk5iVw_e4B_tP7V_jOF-17" target="Znk5iVw_e4B_tP7V_jOF-21">
          <mxGeometry relative="1" as="geometry" />
        </mxCell>
        <mxCell id="Znk5iVw_e4B_tP7V_jOF-17" value="Apmeklēt &quot;Pieslēgties&quot; sadaļu." style="ellipse;whiteSpace=wrap;html=1;" vertex="1" parent="1">
          <mxGeometry x="330" y="250" width="120" height="80" as="geometry" />
        </mxCell>
        <mxCell id="Znk5iVw_e4B_tP7V_jOF-20" style="edgeStyle=orthogonalEdgeStyle;rounded=0;orthogonalLoop=1;jettySize=auto;html=1;entryX=0;entryY=1;entryDx=0;entryDy=0;" edge="1" parent="1" source="Znk5iVw_e4B_tP7V_jOF-19" target="Znk5iVw_e4B_tP7V_jOF-2">
          <mxGeometry relative="1" as="geometry" />
        </mxCell>
        <mxCell id="Znk5iVw_e4B_tP7V_jOF-19" value="pamest &quot;RKDD&quot; mājaslapu" style="ellipse;whiteSpace=wrap;html=1;" vertex="1" parent="1">
          <mxGeometry x="180" y="250" width="120" height="80" as="geometry" />
        </mxCell>
        <mxCell id="Znk5iVw_e4B_tP7V_jOF-24" style="edgeStyle=orthogonalEdgeStyle;rounded=0;orthogonalLoop=1;jettySize=auto;html=1;exitX=0;exitY=0.5;exitDx=0;exitDy=0;entryX=1;entryY=0.5;entryDx=0;entryDy=0;" edge="1" parent="1" source="Znk5iVw_e4B_tP7V_jOF-21" target="Znk5iVw_e4B_tP7V_jOF-23">
          <mxGeometry relative="1" as="geometry" />
        </mxCell>
        <mxCell id="Znk5iVw_e4B_tP7V_jOF-21" value="Apmeklē &quot;Neesi reģistrējies?&quot; sadaļu" style="ellipse;whiteSpace=wrap;html=1;" vertex="1" parent="1">
          <mxGeometry x="330" y="400" width="120" height="80" as="geometry" />
        </mxCell>
        <mxCell id="Znk5iVw_e4B_tP7V_jOF-26" style="edgeStyle=orthogonalEdgeStyle;rounded=0;orthogonalLoop=1;jettySize=auto;html=1;entryX=0.5;entryY=1;entryDx=0;entryDy=0;" edge="1" parent="1" source="Znk5iVw_e4B_tP7V_jOF-23" target="Znk5iVw_e4B_tP7V_jOF-25">
          <mxGeometry relative="1" as="geometry">
            <mxPoint x="70" y="400" as="targetPoint" />
            <Array as="points">
              <mxPoint x="100" y="440" />
              <mxPoint x="100" y="410" />
              <mxPoint x="70" y="410" />
            </Array>
          </mxGeometry>
        </mxCell>
        <mxCell id="Znk5iVw_e4B_tP7V_jOF-23" value="Saglabā lietotāju." style="ellipse;whiteSpace=wrap;html=1;" vertex="1" parent="1">
          <mxGeometry x="120" y="400" width="120" height="80" as="geometry" />
        </mxCell>
        <mxCell id="Znk5iVw_e4B_tP7V_jOF-25" value="dodas atpakaļ uz &quot;Pieslēgties&quot;&amp;nbsp;" style="ellipse;whiteSpace=wrap;html=1;" vertex="1" parent="1">
          <mxGeometry x="10" y="310" width="120" height="80" as="geometry" />
        </mxCell>
        <mxCell id="Znk5iVw_e4B_tP7V_jOF-30" style="edgeStyle=orthogonalEdgeStyle;rounded=0;orthogonalLoop=1;jettySize=auto;html=1;exitX=0;exitY=0.5;exitDx=0;exitDy=0;entryX=1;entryY=0;entryDx=0;entryDy=0;" edge="1" parent="1" source="Znk5iVw_e4B_tP7V_jOF-27" target="Znk5iVw_e4B_tP7V_jOF-2">
          <mxGeometry relative="1" as="geometry" />
        </mxCell>
        <mxCell id="Znk5iVw_e4B_tP7V_jOF-27" value="Apmeklē &quot;Par mums&quot; sadaļu" style="ellipse;whiteSpace=wrap;html=1;" vertex="1" parent="1">
          <mxGeometry x="520" y="60" width="120" height="80" as="geometry" />
        </mxCell>
        <mxCell id="Znk5iVw_e4B_tP7V_jOF-34" style="edgeStyle=orthogonalEdgeStyle;rounded=0;orthogonalLoop=1;jettySize=auto;html=1;exitX=1;exitY=0.5;exitDx=0;exitDy=0;entryX=0;entryY=0.5;entryDx=0;entryDy=0;" edge="1" parent="1" source="Znk5iVw_e4B_tP7V_jOF-31" target="Znk5iVw_e4B_tP7V_jOF-33">
          <mxGeometry relative="1" as="geometry" />
        </mxCell>
        <mxCell id="Znk5iVw_e4B_tP7V_jOF-31" value="Apmeklē &quot;Piegāde&quot; sadaļu.&amp;nbsp;&amp;nbsp;" style="ellipse;whiteSpace=wrap;html=1;" vertex="1" parent="1">
          <mxGeometry x="520" y="170" width="120" height="80" as="geometry" />
        </mxCell>
        <mxCell id="Znk5iVw_e4B_tP7V_jOF-33" value="Apskata Google maps atrašanās vietu" style="ellipse;whiteSpace=wrap;html=1;" vertex="1" parent="1">
          <mxGeometry x="670" y="120" width="120" height="80" as="geometry" />
        </mxCell>
        <mxCell id="Znk5iVw_e4B_tP7V_jOF-38" style="edgeStyle=orthogonalEdgeStyle;rounded=0;orthogonalLoop=1;jettySize=auto;html=1;exitX=0;exitY=0;exitDx=0;exitDy=0;entryX=-0.008;entryY=0.544;entryDx=0;entryDy=0;entryPerimeter=0;" edge="1" parent="1" source="Znk5iVw_e4B_tP7V_jOF-35" target="Znk5iVw_e4B_tP7V_jOF-37">
          <mxGeometry relative="1" as="geometry">
            <Array as="points">
              <mxPoint x="168" y="-200" />
              <mxPoint x="170" y="-200" />
              <mxPoint x="170" y="-276" />
            </Array>
          </mxGeometry>
        </mxCell>
        <mxCell id="Znk5iVw_e4B_tP7V_jOF-35" value="Klikšķis uz &quot;Pirkt&quot;&lt;br&gt;Pogu" style="ellipse;whiteSpace=wrap;html=1;" vertex="1" parent="1">
          <mxGeometry x="150" y="-200" width="120" height="80" as="geometry" />
        </mxCell>
        <mxCell id="Znk5iVw_e4B_tP7V_jOF-40" style="edgeStyle=orthogonalEdgeStyle;rounded=0;orthogonalLoop=1;jettySize=auto;html=1;exitX=1;exitY=0.5;exitDx=0;exitDy=0;entryX=0.5;entryY=0;entryDx=0;entryDy=0;" edge="1" parent="1" source="Znk5iVw_e4B_tP7V_jOF-37" target="Znk5iVw_e4B_tP7V_jOF-39">
          <mxGeometry relative="1" as="geometry" />
        </mxCell>
        <mxCell id="Znk5iVw_e4B_tP7V_jOF-37" value="Apmeklē groza sadaļu" style="ellipse;whiteSpace=wrap;html=1;" vertex="1" parent="1">
          <mxGeometry x="190" y="-320" width="120" height="80" as="geometry" />
        </mxCell>
        <mxCell id="Znk5iVw_e4B_tP7V_jOF-39" value="Aizpilda pasūtīšanas informācijas laukus" style="ellipse;whiteSpace=wrap;html=1;" vertex="1" parent="1">
          <mxGeometry x="320" y="-260" width="120" height="80" as="geometry" />
        </mxCell>
      </root>
    </mxGraphModel>
  </diagram>
</mxfile>
